<?xml version="1.0" encoding="UTF-8" standalone="no"?>
<svg
   xmlns:dc="http://purl.org/dc/elements/1.1/"
   xmlns:cc="http://creativecommons.org/ns#"
   xmlns:rdf="http://www.w3.org/1999/02/22-rdf-syntax-ns#"
   xmlns:svg="http://www.w3.org/2000/svg"
   xmlns="http://www.w3.org/2000/svg"
   xmlns:sodipodi="http://sodipodi.sourceforge.net/DTD/sodipodi-0.dtd"
   xmlns:inkscape="http://www.inkscape.org/namespaces/inkscape"
   version="1.1"
   x="0px"
   y="0px"
   viewBox="0 0 98.485847 74.228996"
   enable-background="new 0 0 100 100"
   xml:space="preserve"
   id="svg4362"
   inkscape:version="0.91 r13725"
   sodipodi:docname="books.svg"
   width="98.485847"
   height="74.228996"><metadata
     id="metadata4396"><rdf:RDF><cc:Work
         rdf:about=""><dc:format>image/svg+xml</dc:format><dc:type
           rdf:resource="http://purl.org/dc/dcmitype/StillImage" /><dc:title></dc:title></cc:Work></rdf:RDF></metadata><defs
     id="defs4394" /><sodipodi:namedview
     pagecolor="#ffffff"
     bordercolor="#666666"
     borderopacity="1"
     objecttolerance="10"
     gridtolerance="10"
     guidetolerance="10"
     inkscape:pageopacity="0"
     inkscape:pageshadow="2"
     inkscape:window-width="1875"
     inkscape:window-height="1056"
     id="namedview4392"
     showgrid="false"
     fit-margin-top="0"
     fit-margin-left="0"
     fit-margin-right="0"
     fit-margin-bottom="0"
     inkscape:zoom="7.368"
     inkscape:cx="54.952882"
     inkscape:cy="50.998545"
     inkscape:window-x="45"
     inkscape:window-y="24"
     inkscape:window-maximized="1"
     inkscape:current-layer="svg4362" /><rect
     x="21.035999"
     y="23.130001"
     width="17.184999"
     height="3.283"
     id="rect4364"
     style="fill:#193441;fill-opacity:1" /><rect
     x="1.0967255e-08"
     y="23.130001"
     width="17.188"
     height="3.283"
     id="rect4366"
     style="fill:#193441;fill-opacity:1" /><rect
     x="42.068996"
     y="23.130001"
     width="17.183001"
     height="3.283"
     id="rect4368"
     style="fill:#193441;fill-opacity:1" /><polygon
     points="77.472,38.869 76.501,42.023 92.597,48.743 93.56,45.587 "
     id="polygon4370"
     style="fill:#193441;fill-opacity:1"
     transform="translate(-0.476,-14.271)" /><path
     d="m 56.964,0.064 -12.613,0 c -1.263,0 -2.282,1.309 -2.282,2.909 l 0,17.715 17.183,0 0,-17.715 c 0,-1.599 -1.019,-2.909 -2.288,-2.909 z"
     id="path4372"
     inkscape:connector-curvature="0"
     style="fill:#193441;fill-opacity:1" /><path
     d="M 96.956,10.882 85.013,6.353 C 83.821,5.9 82.509,6.637 82.091,8.012 l -4.381,14.244 16.096,6.719 4.548,-14.802 c 0.423,-1.366 -0.206,-2.841 -1.398,-3.291 z"
     id="path4374"
     inkscape:connector-curvature="0"
     style="fill:#193441;fill-opacity:1" /><path
     d="M 14.901,0 2.285,0 C 1.021,0 0,1.439 0,3.229 l 0,17.46 17.188,0 0,-17.46 C 17.187,1.438 16.165,0 14.901,0 Z"
     id="path4376"
     inkscape:connector-curvature="0"
     style="fill:#193441;fill-opacity:1" /><path
     d="m 35.932,8.993 -12.614,0 c -1.264,0 -2.282,1.144 -2.282,2.559 l 0,9.136 17.185,0 0,-9.136 C 38.22,10.137 37.196,8.993 35.932,8.993 Z"
     id="path4378"
     inkscape:connector-curvature="0"
     style="fill:#193441;fill-opacity:1" /><path
     d="m 42.069,71.329 c 0,1.6 1.02,2.9 2.282,2.9 l 12.613,0 c 1.269,0 2.287,-1.301 2.287,-2.9 l 0,-42.476 -17.182,0 0,42.476 z"
     id="path4380"
     inkscape:connector-curvature="0"
     style="fill:#193441;fill-opacity:1" /><path
     d="m 21.036,71.676 c 0,1.412 1.019,2.553 2.282,2.553 l 12.614,0 c 1.264,0 2.288,-1.141 2.288,-2.553 l 0,-42.823 -17.184,0 0,42.823 z"
     id="path4382"
     inkscape:connector-curvature="0"
     style="fill:#193441;fill-opacity:1" /><path
     d="m 64.185,66.268 c -0.417,1.371 0.212,2.842 1.404,3.296 l 11.942,4.532 c 1.192,0.45 2.504,-0.287 2.922,-1.658 L 91.398,36.811 75.302,30.094 64.185,66.268 Z"
     id="path4384"
     inkscape:connector-curvature="0"
     style="fill:#193441;fill-opacity:1" /><path
     d="m 0,71.001 c 0,1.78 1.021,3.228 2.285,3.228 l 12.617,0 c 1.263,0 2.286,-1.447 2.286,-3.228 l 0,-42.148 -17.188,0 0,42.148 z"
     id="path4386"
     inkscape:connector-curvature="0"
     style="fill:#193441;fill-opacity:1" /></svg>