<?xml version="1.0" encoding="UTF-8" standalone="no"?>
<svg
   xmlns:dc="http://purl.org/dc/elements/1.1/"
   xmlns:cc="http://creativecommons.org/ns#"
   xmlns:rdf="http://www.w3.org/1999/02/22-rdf-syntax-ns#"
   xmlns:svg="http://www.w3.org/2000/svg"
   xmlns="http://www.w3.org/2000/svg"
   xmlns:sodipodi="http://sodipodi.sourceforge.net/DTD/sodipodi-0.dtd"
   xmlns:inkscape="http://www.inkscape.org/namespaces/inkscape"
   version="1.1"
   x="0px"
   y="0px"
   viewBox="0 0 70.080002 60.285"
   enable-background="new 0 0 100 100"
   xml:space="preserve"
   id="svg3407"
   inkscape:version="0.91 r13725"
   sodipodi:docname="compass-light.svg"
   width="70.080002"
   height="60.285"><metadata
     id="metadata3423"><rdf:RDF><cc:Work
         rdf:about=""><dc:format>image/svg+xml</dc:format><dc:type
           rdf:resource="http://purl.org/dc/dcmitype/StillImage" /><dc:title></dc:title></cc:Work></rdf:RDF></metadata><defs
     id="defs3421" /><sodipodi:namedview
     pagecolor="#ffffff"
     bordercolor="#666666"
     borderopacity="1"
     objecttolerance="10"
     gridtolerance="10"
     guidetolerance="10"
     inkscape:pageopacity="0"
     inkscape:pageshadow="2"
     inkscape:window-width="1875"
     inkscape:window-height="1056"
     id="namedview3419"
     showgrid="false"
     inkscape:zoom="7.368"
     inkscape:cx="11.600764"
     inkscape:cy="8.6555629"
     inkscape:window-x="45"
     inkscape:window-y="24"
     inkscape:window-maximized="1"
     inkscape:current-layer="svg3407"
     borderlayer="true"
     fit-margin-top="0"
     fit-margin-left="0"
     fit-margin-right="0"
     fit-margin-bottom="0" /><g
     id="g3409"
     style="fill:#fcfff5;fill-opacity:1"
     inkscape:export-xdpi="898.73108"
     inkscape:export-ydpi="898.73108"
     transform="translate(-14.96,-19.857)"><path
       d="m 49.999,25.525 c 1.565,0 2.836,-1.268 2.836,-2.834 0,-1.564 -1.271,-2.834 -2.836,-2.834 -1.565,0 -2.833,1.27 -2.833,2.834 0,1.567 1.268,2.834 2.833,2.834"
       id="path3411"
       style="fill:#fcfff5;fill-opacity:1"
       inkscape:connector-curvature="0" /></g><path
     d="M 70.08,58.592 57.231,36.337 c 3.14,-1.86 6.068,-4.123 8.715,-6.771 l 1.098,-1.097 -8.605,-8.051 -1.025,1.026 c -1.841,1.842 -3.87,3.427 -6.041,4.743 L 38.81,4.427 35.041,6.622 31.272,4.428 18.655,26.282 c -2.228,-1.333 -4.306,-2.951 -6.19,-4.834 l -1.025,-1.027 -8.606,8.051 1.097,1.097 c 2.69,2.69 5.671,4.98 8.868,6.856 L 0,58.593 2.466,60.285 19.25,39.521 c 4.943,1.891 10.237,2.891 15.688,2.891 5.508,0 10.858,-1.021 15.845,-2.952 L 67.615,60.285 70.08,58.592 Z M 32.364,8.535 l 2.677,1.56 2.674,-1.559 11.019,19.082 c -0.892,0.43 -1.803,0.816 -2.729,1.16 L 35.04,15.215 24.027,28.838 C 23.101,28.5 22.19,28.122 21.3,27.698 L 32.364,8.535 Z m 10.565,21.209 c -2.579,0.665 -5.259,1.013 -7.992,1.013 -2.673,0 -5.295,-0.329 -7.822,-0.966 l 7.926,-9.806 7.888,9.759 z M 12.18,43.495 15.439,37.85 c 0.311,0.154 0.619,0.312 0.933,0.459 l -4.192,5.186 z m -5.009,-14.97 4.221,-3.95 c 6.437,5.932 14.742,9.182 23.546,9.182 8.806,0 17.112,-3.25 23.55,-9.184 l 4.223,3.95 c -7.575,7.036 -17.378,10.89 -27.772,10.89 -10.393,0 -20.194,-3.854 -27.768,-10.888 z m 46.484,9.717 c 0.316,-0.149 0.626,-0.314 0.939,-0.472 l 3.303,5.721 -4.242,-5.249 z"
     id="path3413"
     style="fill:#fcfff5;fill-opacity:1"
     inkscape:export-xdpi="898.73108"
     inkscape:export-ydpi="898.73108"
     inkscape:connector-curvature="0" /></svg>